<?xml version="1.0" standalone="no"?>
<!DOCTYPE svg PUBLIC "-//W3C//DTD SVG 20010904//EN"
 "http://www.w3.org/TR/2001/REC-SVG-20010904/DTD/svg10.dtd">
<svg version="1.0" xmlns="http://www.w3.org/2000/svg"
 width="440.000000pt" height="363.000000pt" viewBox="0 0 440.000000 363.000000"
 preserveAspectRatio="xMidYMid meet">

<g transform="translate(0.000000,363.000000) scale(0.100000,-0.100000)"
fill="#000000" stroke="none">
<path d="M2933 3027 c-15 -13 -64 -36 -108 -51 -121 -43 -200 -99 -275 -195
-49 -65 -82 -127 -103 -196 -8 -27 -33 -88 -56 -134 -23 -47 -41 -92 -42 -100
0 -10 -4 -8 -9 6 -6 14 -5 34 1 51 5 16 8 73 7 127 l-3 99 -105 -3 c-58 -1
-109 -7 -115 -12 -5 -6 -10 -58 -10 -117 l0 -107 93 -3 c86 -3 113 -12 76 -26
-9 -3 -109 -6 -224 -6 l-208 0 -4 -42 c-7 -62 -3 -182 6 -196 5 -9 56 -12 177
-12 106 0 169 -4 169 -10 0 -5 -16 -10 -35 -10 l-35 0 0 -125 0 -125 78 0 c42
0 84 -5 92 -10 13 -9 13 -10 0 -10 -110 1 -665 -12 -669 -15 -14 -15 39 -17
351 -16 331 1 388 -3 363 -28 -6 -6 -153 -13 -363 -17 -193 -4 -352 -11 -352
-16 0 -4 141 -8 312 -8 286 0 311 -1 290 -16 -32 -22 -52 -67 -52 -115 0 -35
6 -47 39 -78 40 -36 40 -36 34 -96 -4 -52 -2 -64 17 -88 12 -15 37 -34 55 -41
27 -12 35 -22 41 -50 7 -41 -3 -129 -15 -122 -4 3 -18 -8 -30 -24 -24 -33 -41
-39 -41 -13 0 14 -2 14 -21 -3 l-21 -19 6 70 6 70 -20 -40 c-16 -30 -20 -53
-16 -92 4 -47 2 -53 -15 -53 -29 0 -57 34 -64 77 -11 62 -17 71 -26 40 -5 -18
-3 -45 7 -75 7 -26 14 -48 14 -49 0 -2 -13 -3 -30 -3 -41 0 -77 -19 -84 -43
-6 -23 4 -40 11 -19 17 48 84 56 132 17 43 -37 43 -69 0 -137 -20 -31 -42 -77
-49 -103 -11 -40 -11 -48 3 -62 21 -21 37 -8 37 30 0 33 77 207 92 207 4 0 8
-4 8 -9 0 -11 81 -2 95 11 6 6 4 19 -7 39 -17 29 -17 29 4 18 11 -6 23 -20 25
-30 6 -22 19 -25 26 -5 3 7 22 17 42 20 27 5 44 2 69 -14 38 -23 46 -37 46
-84 0 -33 -27 -66 -63 -79 -15 -6 -17 -3 -12 14 7 20 4 20 -29 -6 -33 -25 -42
-27 -93 -22 -41 4 -69 15 -100 36 -52 37 -55 37 -51 9 2 -14 16 -30 38 -40
l35 -18 -31 0 c-18 0 -42 -9 -55 -19 l-24 -20 59 6 c53 5 58 4 55 -12 -3 -11
-17 -22 -37 -27 -21 -6 -32 -15 -32 -26 0 -10 -6 -26 -13 -35 -11 -15 -39 -18
-237 -21 -124 -2 -246 -4 -272 -5 -28 -1 -48 -6 -48 -12 0 -8 79 -10 273 -7
206 2 278 0 289 -9 11 -10 17 -10 26 -1 15 15 26 4 18 -18 -5 -12 -13 -15 -34
-10 -76 18 -97 17 -137 -7 -38 -22 -40 -25 -38 -71 2 -69 12 -74 78 -38 31 17
78 34 103 38 26 4 56 11 67 17 11 6 63 10 120 9 55 -2 114 2 130 7 l30 9 -30
1 c-48 2 -54 11 -52 76 2 58 1 60 -23 60 -29 0 -63 45 -58 78 3 21 14 26 92
42 16 3 42 20 59 36 26 27 29 35 24 75 -5 51 -27 80 -77 103 -20 9 -53 30 -75
48 -35 30 -38 34 -27 58 14 30 31 32 65 5 29 -23 37 -25 37 -7 0 18 -52 47
-84 47 -26 0 -26 0 -26 83 0 71 3 87 20 102 10 9 27 37 36 61 9 24 19 44 21
44 2 0 24 -12 49 -26 42 -25 50 -26 221 -27 l178 -2 3 -34 c2 -19 -1 -62 -7
-95 -7 -37 -7 -82 -2 -114 l8 -52 -36 -9 c-20 -5 -60 -12 -89 -16 -43 -6 -60
-14 -88 -42 -37 -37 -38 -45 -1 -49 12 -1 50 -5 83 -9 50 -6 75 -3 135 15 69
21 74 21 84 5 53 -89 115 -143 197 -173 26 -9 48 -20 48 -23 0 -3 -20 -9 -45
-12 -67 -10 -120 -40 -139 -82 -16 -33 -20 -35 -64 -36 -55 -1 -96 -14 -72
-22 8 -3 56 -8 105 -11 50 -3 119 -12 155 -20 77 -18 432 -22 544 -6 101 15
120 27 124 75 4 60 -38 115 -112 145 -42 17 -56 27 -51 38 3 8 10 48 16 88 14
90 1 176 -34 231 -14 21 -28 55 -31 75 -4 24 -18 47 -41 67 -27 23 -41 50 -65
122 -16 50 -30 108 -30 128 0 42 -27 101 -52 113 -10 4 -26 12 -35 16 -9 5
-21 24 -26 43 -4 19 -20 45 -34 58 -21 18 -24 27 -17 40 24 39 112 83 263 131
160 52 212 79 263 134 73 78 108 172 108 291 0 147 -40 247 -137 342 -67 66
-124 99 -219 129 -45 13 -89 35 -109 53 -51 45 -103 56 -171 36 -69 -20 -89
-14 -114 35 -21 42 -46 60 -79 60 -30 0 -26 -12 10 -33 50 -28 27 -30 -32 -2
-30 13 -73 27 -97 31 -41 6 -69 24 -38 24 21 0 21 16 0 24 -24 9 -30 8 -61
-17z m178 -90 c30 -13 66 -37 79 -53 14 -17 32 -28 43 -26 22 4 22 3 -9 -52
-33 -59 -57 -58 -97 1 -68 102 -150 125 -242 68 -69 -43 -105 -97 -115 -176
-4 -35 -11 -72 -15 -81 -6 -16 -79 -76 -138 -113 -19 -13 -26 -23 -21 -34 4
-9 20 -51 35 -93 15 -42 39 -99 53 -127 63 -123 87 -328 49 -408 -18 -38 -65
-73 -99 -73 -56 0 -120 34 -181 98 -72 74 -88 116 -98 252 -9 106 4 176 51
288 20 48 51 127 69 176 19 49 50 113 71 143 51 74 142 155 217 191 87 42 107
47 107 27 0 -14 4 -13 28 5 23 19 35 22 93 17 36 -3 89 -16 120 -30z m583
-184 c103 -52 197 -169 231 -288 21 -69 16 -186 -10 -274 -30 -99 -122 -166
-312 -226 -59 -19 -142 -52 -183 -72 -71 -36 -77 -41 -107 -103 -18 -35 -41
-68 -52 -72 -11 -4 -44 -4 -73 -1 -47 5 -59 12 -101 55 -54 56 -86 72 -177 87
-133 23 -120 14 -120 89 0 83 -31 215 -66 284 -35 69 -74 174 -74 198 0 19
113 119 136 120 6 0 21 -12 35 -26 31 -35 95 -64 139 -64 39 0 127 38 149 63
7 9 24 42 36 74 13 32 28 59 34 61 5 2 19 -14 30 -35 24 -46 76 -98 114 -112
46 -18 109 -13 157 12 67 33 105 108 103 200 l-1 68 31 -7 c18 -3 54 -18 81
-31z m-1372 -178 c4 -16 5 -58 2 -92 l-7 -63 -88 0 -89 0 0 95 0 96 87 -3 87
-3 8 -30z m-12 -271 c0 -17 -7 -37 -16 -45 -9 -7 -30 -33 -47 -58 -17 -25 -35
-49 -41 -53 -6 -4 -84 -8 -173 -8 l-163 0 0 60 c0 41 4 60 13 60 9 0 9 2 -1 9
-8 4 -12 19 -10 32 3 23 6 24 113 29 61 3 158 5 218 6 l107 1 0 -33z m-92
-260 c20 -14 25 -14 51 2 51 30 61 16 61 -86 l0 -90 -90 0 -90 0 0 95 c0 92 1
95 23 95 12 0 33 -7 45 -16z m224 -233 c63 -69 189 -102 257 -67 15 8 40 33
56 56 28 41 30 42 74 35 171 -24 238 -50 226 -88 -4 -12 -9 -34 -12 -48 l-5
-27 -139 -7 c-96 -5 -167 -3 -224 6 -84 12 -84 12 -123 -14 -49 -35 -65 -35
-52 -2 10 27 1 64 -21 82 -8 6 -32 16 -55 22 -22 6 -51 22 -64 36 -21 22 -22
29 -12 45 7 11 12 30 12 42 1 22 2 22 26 -7 14 -16 39 -45 56 -64z m-21 -102
c16 -16 20 -28 15 -55 -4 -18 -2 -42 3 -53 12 -21 -10 -216 -28 -249 -12 -23
-38 -36 -66 -33 -38 5 -48 26 -46 94 2 64 1 66 -37 98 -56 49 -66 71 -48 113
24 57 86 61 105 6 12 -35 37 -42 27 -7 -16 57 -18 78 -6 92 18 21 56 19 81 -6z
m928 7 c17 -21 30 -72 24 -96 -10 -39 -52 -50 -160 -43 -54 3 -110 12 -125 20
-25 12 -28 19 -28 68 0 30 4 55 9 55 5 0 28 -7 51 -15 75 -26 224 -15 205 16
-10 14 11 11 24 -5z m-515 -83 l190 -6 31 -32 c29 -31 35 -33 129 -40 54 -4
123 -5 152 -2 l54 6 44 -54 c69 -85 90 -137 91 -225 0 -63 -3 -75 -17 -78 -13
-3 -18 3 -18 21 0 32 -9 57 -21 57 -5 0 -9 -9 -9 -20 0 -19 -1 -19 -24 -5 -24
16 -49 12 -77 -12 -14 -11 -20 -11 -44 1 -29 15 -49 12 -77 -12 -20 -17 -24
-67 -7 -78 20 -12 70 -6 89 11 14 13 23 14 39 6 31 -17 56 -13 83 14 25 24 26
25 31 5 3 -14 13 -20 31 -20 20 0 26 -5 26 -22 0 -13 -7 -31 -14 -41 -14 -18
-15 -18 -25 0 -9 16 -10 15 -11 -7 0 -20 -2 -22 -10 -10 -8 13 -10 12 -10 -4
0 -12 -5 -16 -15 -12 -8 3 -15 0 -15 -6 0 -7 -5 -6 -15 2 -12 10 -15 10 -15
-2 0 -8 -6 -16 -12 -17 -90 -14 -108 -13 -109 5 -1 17 -2 17 -6 2 -5 -21 -19
-23 -26 -5 -3 7 -6 5 -6 -5 -1 -29 -75 -25 -89 5 l-11 22 0 -22 c-1 -20 -6
-23 -43 -23 -64 0 -86 9 -97 39 -9 24 -9 24 -10 4 -1 -27 -23 -30 -42 -6 -10
11 -13 39 -11 97 2 45 4 110 5 146 l2 65 -183 2 c-199 1 -216 4 -250 33 -19
16 -21 23 -12 40 9 18 8 20 -15 20 -34 0 -32 20 3 21 23 0 24 2 8 8 -19 7 -19
8 0 15 19 8 19 8 -1 16 -17 7 -17 9 -2 9 20 1 23 17 5 24 -7 3 -2 6 12 7 23 1
23 2 7 11 -17 10 -14 14 30 40 32 19 56 27 73 23 14 -3 110 -8 214 -11z m621
-48 c17 -16 25 -35 25 -57 l-1 -33 -44 48 c-25 27 -42 53 -39 58 10 16 34 10
59 -16z m-35 -350 c25 -30 -18 -71 -46 -44 -12 13 -12 18 2 37 18 26 27 27 44
7z m175 -5 c26 -29 22 -70 -10 -97 -15 -13 -29 -22 -31 -20 -6 6 9 137 16 137
4 0 15 -9 25 -20z m-288 -13 c21 -16 -3 -47 -37 -47 -34 0 -38 14 -14 48 15
21 23 21 51 -1z m340 -105 c44 -28 43 -274 -1 -311 -20 -17 -143 -26 -161 -11
-13 11 -13 16 6 46 24 39 12 44 -31 14 -49 -35 -139 -70 -178 -70 -22 0 -67
14 -108 34 -54 26 -79 45 -107 83 -19 27 -38 60 -42 74 l-6 26 158 7 c87 4
178 12 203 17 25 6 68 13 97 16 43 4 58 12 89 44 37 38 57 46 81 31z m-1294
-36 c-10 -13 -19 -23 -21 -21 -7 6 19 45 29 45 5 0 2 -11 -8 -24z m577 -81 c0
-33 -30 -45 -116 -45 -76 0 -85 2 -82 17 2 12 17 20 43 25 22 4 63 11 90 15
56 10 65 8 65 -12z m516 -219 c6 -25 6 -25 113 -19 131 7 193 -9 241 -63 55
-63 31 -110 -59 -116 l-43 -3 -14 46 c-13 44 -38 78 -49 67 -3 -3 2 -24 10
-48 23 -64 21 -70 -25 -70 -36 0 -41 4 -60 39 -11 22 -25 43 -31 46 -19 12
-22 -3 -5 -27 9 -12 16 -30 16 -40 0 -16 -12 -18 -117 -18 -139 0 -299 22
-321 44 -14 13 -13 17 1 40 19 29 71 46 138 46 41 0 48 3 53 23 4 18 19 27 60
40 31 10 58 22 61 27 11 17 24 11 31 -14z m-1115 -63 c13 -15 12 -15 -11 -3
-34 17 -36 20 -18 20 9 0 22 -7 29 -17z m19 -47 c0 -3 -4 -8 -10 -11 -5 -3
-10 -1 -10 4 0 6 5 11 10 11 6 0 10 -2 10 -4z m-27 -36 c9 0 17 -4 17 -10 0
-5 -6 -7 -14 -4 -8 3 -21 -4 -29 -16 -13 -18 -16 -19 -27 -5 -10 12 -16 13
-26 4 -11 -9 -14 -6 -14 16 0 26 2 27 38 21 20 -3 45 -6 55 -6z m57 -65 c1
-11 2 -29 1 -40 -2 -34 -21 5 -21 45 0 36 17 32 20 -5z m71 -38 c-6 -15 -15
-27 -20 -27 -8 0 -2 30 20 100 1 3 4 -7 6 -21 2 -14 -1 -37 -6 -52z m-112 -17
c0 -24 0 -24 -14 -6 -8 11 -15 34 -15 50 l1 31 14 -25 c8 -14 14 -36 14 -50z
m-116 -16 c51 -9 41 -28 -19 -36 -27 -3 -66 -14 -88 -23 -72 -31 -77 21 -5 58
19 10 43 15 54 12 11 -3 37 -8 58 -11z"/>
<path d="M2496 2426 c-9 -21 -16 -42 -16 -47 0 -5 -4 -9 -10 -9 -5 0 -8 6 -6
13 32 101 4 83 -39 -28 -38 -95 -38 -95 -32 -207 9 -183 50 -274 147 -323 60
-30 83 -31 120 -5 62 44 77 152 40 290 -24 89 -127 300 -146 300 -17 0 -30
-25 -39 -73 -4 -21 -10 -36 -12 -33 -3 3 0 34 7 70 15 80 8 104 -14 52z"/>
<path d="M3458 2414 c-53 -28 -57 -78 -8 -104 44 -24 180 -2 180 29 0 5 3 16
6 25 3 9 -5 26 -20 41 -21 21 -34 25 -78 25 -29 -1 -65 -7 -80 -16z"/>
<path d="M2161 2534 c0 -11 3 -14 6 -6 3 7 2 16 -1 19 -3 4 -6 -2 -5 -13z"/>
<path d="M3082 1650 c0 -14 2 -19 5 -12 2 6 2 18 0 25 -3 6 -5 1 -5 -13z"/>
<path d="M3330 1663 c0 -4 5 -15 10 -23 8 -13 10 -13 10 2 0 9 -4 20 -10 23
-5 3 -10 3 -10 -2z"/>
<path d="M3121 1634 c0 -11 3 -14 6 -6 3 7 2 16 -1 19 -3 4 -6 -2 -5 -13z"/>
<path d="M3307 1630 c3 -11 7 -20 9 -20 2 0 4 9 4 20 0 11 -4 20 -9 20 -5 0
-7 -9 -4 -20z"/>
<path d="M3406 1424 c-18 -18 -21 -76 -6 -105 11 -20 64 -27 75 -9 4 6 -7 10
-24 10 -37 0 -42 23 -8 42 l22 12 -23 5 c-29 8 -31 23 -3 36 11 5 21 13 21 17
0 14 -38 8 -54 -8z"/>
<path d="M3200 1423 c-34 -6 -50 -23 -22 -23 19 0 22 -6 22 -36 0 -19 -5 -44
-11 -55 -10 -20 -11 -20 -30 -3 -22 20 -38 12 -19 -11 18 -21 57 -19 70 4 5
11 10 38 10 61 0 27 5 43 15 46 8 4 15 10 15 15 0 9 -7 10 -50 2z"/>
<path d="M3278 1406 c-49 -36 -37 -109 18 -114 37 -4 71 22 79 60 12 50 -54
87 -97 54z m53 -16 c22 -13 25 -52 5 -70 -8 -6 -25 -10 -38 -8 -30 4 -38 56
-12 75 21 16 20 16 45 3z"/>
<path d="M3132 1237 c-12 -13 -22 -33 -22 -45 0 -40 76 -69 88 -33 3 8 0 11
-6 7 -16 -9 -62 11 -62 28 0 23 30 47 51 41 23 -8 26 10 3 19 -24 9 -29 8 -52
-17z"/>
<path d="M3171 1054 c0 -11 3 -14 6 -6 3 7 2 16 -1 19 -3 4 -6 -2 -5 -13z"/>
<path d="M1654 2618 c-7 -11 -2 -11 211 -12 l190 -1 3 -39 c2 -22 -1 -36 -6
-32 -13 8 -25 -40 -16 -66 5 -16 8 -18 15 -7 6 11 9 8 9 -8 0 -37 -32 -45
-168 -43 -223 3 -252 2 -252 -15 0 -13 29 -15 198 -15 108 0 207 3 220 6 21 6
22 10 22 126 l0 120 -211 -3 c-116 -2 -213 -7 -215 -11z"/>
<path d="M1640 2350 c0 -5 35 -10 78 -12 l77 -3 -4 -95 c-1 -52 -5 -98 -8
-102 -2 -5 -36 -8 -74 -8 -52 0 -70 -3 -67 -12 5 -14 106 -23 145 -13 22 5 23
8 23 130 l0 125 -85 0 c-48 0 -85 -4 -85 -10z"/>
<path d="M1683 2073 c-18 -2 -33 -9 -33 -14 0 -7 68 -10 198 -9 108 1 205 2
215 1 16 -1 17 -11 15 -93 l-3 -93 -160 -6 c-88 -4 -188 -7 -222 -8 -43 -1
-63 -5 -63 -13 0 -16 438 -12 458 4 8 7 12 45 12 124 l0 114 -192 -2 c-106 0
-208 -3 -225 -5z"/>
<path d="M2010 2030 c-10 -6 -11 -10 -2 -10 6 0 12 -12 12 -26 0 -15 4 -23 11
-19 6 4 17 -1 24 -11 13 -18 14 -18 15 -1 0 9 -8 25 -19 36 -10 10 -20 23 -22
29 -3 8 -9 8 -19 2z"/>
<path d="M2050 2030 c0 -5 5 -10 11 -10 5 0 7 5 4 10 -3 6 -8 10 -11 10 -2 0
-4 -4 -4 -10z"/>
<path d="M1982 1609 c-35 -44 -62 -84 -60 -90 4 -11 138 145 138 161 0 22 -18
6 -78 -71z"/>
<path d="M1880 1625 c-19 -23 -61 -75 -94 -114 -32 -40 -56 -75 -52 -79 4 -4
12 1 18 11 12 22 154 187 174 203 17 14 18 24 2 24 -7 -1 -29 -21 -48 -45z"/>
<path d="M1896 1579 c-67 -81 -86 -110 -70 -108 19 1 159 189 142 189 -3 0
-35 -36 -72 -81z"/>
<path d="M1830 1625 c-8 -9 -8 -15 -2 -15 12 0 26 19 19 26 -2 2 -10 -2 -17
-11z"/>
<path d="M1787 1583 c-4 -3 -7 -11 -7 -17 0 -6 5 -5 12 2 6 6 9 14 7 17 -3 3
-9 2 -12 -2z"/>
<path d="M1735 1520 c-10 -11 -13 -20 -8 -20 13 0 38 29 31 35 -3 3 -13 -4
-23 -15z"/>
<path d="M2030 1370 c0 -5 5 -10 10 -10 6 0 10 5 10 10 0 6 -4 10 -10 10 -5 0
-10 -4 -10 -10z"/>
<path d="M2070 882 c-22 -22 -40 -47 -40 -58 0 -14 14 -5 55 36 30 30 55 56
55 57 0 2 -7 3 -15 3 -8 0 -32 -17 -55 -38z"/>
<path d="M2095 787 c-25 -44 -31 -67 -17 -67 7 0 62 92 62 104 0 19 -23 0 -45
-37z"/>
<path d="M2606 740 c-21 -21 -35 -43 -32 -48 7 -11 52 -2 83 18 16 10 15 11
-9 7 l-27 -4 19 27 c38 54 20 54 -34 0z"/>
<path d="M2806 743 c7 -46 21 -63 30 -39 4 10 2 22 -5 29 -6 6 -11 19 -11 29
0 10 -4 18 -10 18 -6 0 -8 -15 -4 -37z"/>
<path d="M2966 737 c-36 -29 -29 -44 18 -39 35 4 53 32 21 32 -9 0 -12 6 -9
15 8 20 4 19 -30 -8z"/>
<path d="M3065 740 c-8 -26 -3 -33 19 -24 20 8 20 18 2 33 -11 10 -16 8 -21
-9z"/>
<path d="M2704 725 c-3 -14 -4 -29 0 -32 7 -8 46 26 46 40 0 6 -3 7 -7 4 -3
-4 -12 -2 -19 4 -10 8 -15 5 -20 -16z"/>
<path d="M2896 731 c-10 -11 -13 -22 -8 -25 5 -3 17 3 26 13 10 11 13 22 8 25
-5 3 -17 -3 -26 -13z"/>
<path d="M2507 723 c-4 -3 -7 -13 -7 -21 0 -12 3 -12 15 -2 8 7 15 16 15 21 0
11 -14 12 -23 2z"/>
<path d="M2072 151 c-7 -21 -19 -44 -27 -51 -8 -7 -13 -16 -10 -20 3 -5 1 -11
-5 -15 -5 -3 -10 -11 -10 -17 0 -6 11 -1 25 12 14 13 25 29 25 36 0 15 26 12
42 -4 7 -7 17 -12 23 -12 5 0 -1 9 -15 19 -13 11 -29 17 -34 14 -5 -4 -6 11
-2 35 8 53 3 54 -12 3z"/>
<path d="M2168 183 c12 -2 32 -2 45 0 12 2 2 4 -23 4 -25 0 -35 -2 -22 -4z"/>
<path d="M2240 176 c0 -8 -10 -17 -22 -19 -20 -4 -19 -4 5 -6 21 -1 27 4 27
19 0 11 -2 20 -5 20 -3 0 -5 -6 -5 -14z"/>
<path d="M2280 182 c0 -5 14 -7 30 -4 17 2 30 6 30 8 0 2 -13 4 -30 4 -16 0
-30 -4 -30 -8z"/>
<path d="M2352 148 l-2 -47 -35 6 c-32 5 -35 4 -34 -18 0 -13 3 -18 6 -11 2 6
18 12 34 12 21 0 29 -5 29 -18 0 -15 -6 -17 -34 -14 -18 2 -36 0 -39 -5 -3 -4
14 -8 36 -7 41 1 42 2 45 38 2 20 1 53 -1 74 -3 34 -4 34 -5 -10z"/>
<path d="M2430 173 c0 -11 3 -14 8 -7 4 6 14 14 22 17 10 4 8 6 -7 6 -16 1
-23 -5 -23 -16z"/>
<path d="M2479 183 c0 -5 -2 -23 -5 -40 -2 -18 1 -33 6 -33 6 0 10 18 10 40 0
22 -2 40 -5 40 -3 0 -5 -3 -6 -7z"/>
<path d="M1972 152 c-1 -24 0 -25 9 -9 7 11 7 23 2 28 -5 5 -9 -3 -11 -19z"/>
<path d="M2400 170 c0 -5 5 -10 11 -10 5 0 7 5 4 10 -3 6 -8 10 -11 10 -2 0
-4 -4 -4 -10z"/>
<path d="M1913 155 c-3 -9 -3 -18 -1 -21 3 -3 8 4 11 16 6 23 -1 27 -10 5z"/>
<path d="M1936 154 c-8 -21 -8 -24 3 -24 12 0 22 28 12 35 -5 3 -12 -2 -15
-11z"/>
<path d="M2150 159 c0 -5 9 -9 20 -9 11 0 20 2 20 4 0 2 -9 6 -20 9 -11 3 -20
1 -20 -4z"/>
<path d="M1997 138 c-5 -20 -12 -26 -25 -21 -14 5 -14 3 2 -9 19 -15 19 -15
-5 -13 -42 4 -44 5 -30 14 10 7 7 9 -12 8 -15 -1 -27 -8 -27 -15 0 -7 4 -11 9
-8 5 3 14 0 20 -8 6 -7 24 -13 41 -14 32 -1 45 23 38 69 -3 23 -4 23 -11 -3z"/>
<path d="M2280 137 c0 -14 3 -17 13 -9 6 5 21 12 32 14 14 3 11 6 -12 9 -28 5
-33 2 -33 -14z"/>
<path d="M2400 120 c0 -18 -4 -29 -10 -25 -5 3 -10 1 -10 -4 0 -6 5 -11 11
-11 8 0 8 -5 -1 -15 -10 -12 -10 -15 3 -15 11 0 16 13 19 46 2 25 0 48 -4 50
-5 3 -8 -9 -8 -26z"/>
<path d="M2437 143 c-4 -3 -7 -13 -7 -21 0 -12 3 -12 15 -2 8 7 15 16 15 21 0
11 -14 12 -23 2z"/>
<path d="M2150 103 c0 -26 3 -30 20 -26 23 6 27 23 5 23 -8 0 -15 4 -15 9 0
17 40 7 46 -11 7 -22 54 -25 54 -4 0 9 -7 12 -19 9 -10 -3 -22 0 -25 6 -4 6 0
11 8 11 9 0 16 3 16 8 0 4 -20 7 -45 7 -44 0 -45 -1 -45 -32z"/>
<path d="M2438 103 c-11 -3 -18 -14 -18 -28 0 -20 5 -23 38 -23 32 0 34 1 14
9 -13 5 -28 7 -33 3 -5 -3 -9 0 -9 6 0 6 8 10 18 9 9 -1 26 -1 37 0 20 2 20 2
1 16 -11 8 -22 14 -25 14 -3 -1 -14 -3 -23 -6z"/>
<path d="M2160 60 c-8 -5 -12 -11 -9 -14 3 -3 14 1 25 9 21 16 8 20 -16 5z"/>
<path d="M2230 55 c-8 -9 -8 -15 -2 -15 12 0 26 19 19 26 -2 2 -10 -2 -17 -11z"/>
<path d="M1950 50 c-23 -7 -23 -8 -3 -9 12 -1 25 4 28 9 3 6 5 10 3 9 -2 -1
-14 -5 -28 -9z"/>
</g>
</svg>
